<svg width="14" height="15" viewBox="0 0 14 15" fill="none" xmlns="http://www.w3.org/2000/svg">
<path d="M6.96439 10C4.32266 10 1.97339 11.2755 0.477722 13.255C0.155814 13.681 -0.00513974 13.894 0.00012509 14.1819C0.00419266 14.4043 0.143861 14.6849 0.318866 14.8222C0.545383 15 0.859285 15 1.48709 15H12.4417C13.0695 15 13.3834 15 13.6099 14.8222C13.7849 14.6849 13.9246 14.4043 13.9287 14.1819C13.9339 13.894 13.773 13.681 13.4511 13.255C11.9554 11.2755 9.60612 10 6.96439 10Z" fill="white"/>
<path d="M6.96439 7.5C9.03546 7.5 10.7144 5.82107 10.7144 3.75C10.7144 1.67893 9.03546 0 6.96439 0C4.89333 0 3.21439 1.67893 3.21439 3.75C3.21439 5.82107 4.89333 7.5 6.96439 7.5Z" fill="white"/>
</svg>
